<svg xmlns="http://www.w3.org/2000/svg" viewBox="0 0 64 64">
  <defs>
    <linearGradient id="bg" x1="0%" y1="0%" x2="100%" y2="100%">
      <stop offset="0%" stop-color="#06101f"/>
      <stop offset="100%" stop-color="#0d1831"/>
    </linearGradient>
    <linearGradient id="glow" x1="0%" y1="0%" x2="100%" y2="100%">
      <stop offset="0%" stop-color="#51f6d2"/>
      <stop offset="55%" stop-color="#5aa6ff"/>
      <stop offset="100%" stop-color="#ffc96b"/>
    </linearGradient>
  </defs>
  <rect width="64" height="64" rx="18" fill="url(#bg)"/>
  <circle cx="32" cy="32" r="22" fill="none" stroke="rgba(255,255,255,0.08)" stroke-width="1.5"/>
  <path d="M32 12l5.5 11.5L50 29l-9.2 8.8L42.8 52 32 46.2 21.2 52l2-14.2L14 29l12.5-5.5L32 12z" fill="url(#glow)" opacity="0.16"/>
  <path d="M20 43V21h10.6c5.7 0 9.2 2.8 9.2 7.5 0 5-3.7 8-9.7 8h-4.8V43H20zm5.3-10.9h4.4c3.2 0 4.9-1.3 4.9-3.8 0-2.4-1.7-3.7-4.9-3.7h-4.4v7.5z" fill="url(#glow)"/>
  <circle cx="49" cy="15" r="3" fill="#51f6d2"/>
  <circle cx="14" cy="46" r="2.4" fill="#5aa6ff"/>
</svg>
