<svg xmlns="http://www.w3.org/2000/svg" viewBox="0 0 640 420">
  <defs>
    <linearGradient id="bg" x1="0%" y1="0%" x2="100%" y2="100%">
      <stop offset="0%" stop-color="#081428"/>
      <stop offset="100%" stop-color="#111b36"/>
    </linearGradient>
    <linearGradient id="glow" x1="0%" y1="0%" x2="100%" y2="100%">
      <stop offset="0%" stop-color="#51f6d2"/>
      <stop offset="50%" stop-color="#5aa6ff"/>
      <stop offset="100%" stop-color="#ffc96b"/>
    </linearGradient>
  </defs>
  <rect width="640" height="420" rx="36" fill="url(#bg)"/>
  <circle cx="145" cy="110" r="86" fill="#51f6d2" opacity="0.08"/>
  <circle cx="480" cy="92" r="72" fill="#5aa6ff" opacity="0.08"/>
  <circle cx="520" cy="336" r="90" fill="#ffc96b" opacity="0.08"/>
  <rect x="82" y="84" width="224" height="250" rx="24" fill="#0b1832" stroke="rgba(255,255,255,0.08)"/>
  <rect x="110" y="118" width="168" height="20" rx="10" fill="#d9e5ff" opacity="0.86"/>
  <rect x="110" y="156" width="132" height="14" rx="7" fill="#7ea5d6" opacity="0.72"/>
  <rect x="110" y="184" width="150" height="14" rx="7" fill="#7ea5d6" opacity="0.56"/>
  <rect x="110" y="214" width="124" height="14" rx="7" fill="#7ea5d6" opacity="0.42"/>
  <rect x="110" y="266" width="110" height="34" rx="17" fill="url(#glow)" opacity="0.28"/>
  <path d="M366 129c36-18 77-20 111-1 34 19 54 53 54 94 0 33-14 60-39 80-24 18-53 27-87 24l-14 25-34-10 15-28c-28-13-48-36-58-67-15-49 8-98 52-117Z" fill="none" stroke="url(#glow)" stroke-width="10" stroke-linejoin="round"/>
  <circle cx="412" cy="220" r="16" fill="#51f6d2"/>
  <circle cx="458" cy="184" r="16" fill="#5aa6ff"/>
  <circle cx="487" cy="250" r="16" fill="#ffc96b"/>
  <path d="M412 220 458 184 487 250" stroke="#dfe8ff" stroke-width="6" stroke-linecap="round"/>
  <text x="84" y="382" fill="#eef2ff" font-family="Orbitron, sans-serif" font-size="28" letter-spacing="2">RAG / GROUNDING / CONTEXT</text>
</svg>
