<svg width="320" height="220" viewBox="0 0 320 220" fill="none" xmlns="http://www.w3.org/2000/svg">
  <rect width="320" height="220" rx="28" fill="#07111f"/>
  <circle cx="55" cy="50" r="34" fill="#51f6d2" fill-opacity="0.15"/>
  <circle cx="270" cy="165" r="46" fill="#ffd166" fill-opacity="0.13"/>
  <rect x="42" y="48" width="74" height="46" rx="14" fill="#101a2e" stroke="#8cc6ff" stroke-width="3"/>
  <rect x="42" y="126" width="74" height="46" rx="14" fill="#101a2e" stroke="#8cc6ff" stroke-width="3"/>
  <rect x="204" y="48" width="74" height="46" rx="14" fill="#101a2e" stroke="#8cc6ff" stroke-width="3"/>
  <rect x="204" y="126" width="74" height="46" rx="14" fill="#101a2e" stroke="#8cc6ff" stroke-width="3"/>
  <rect x="124" y="82" width="72" height="56" rx="18" fill="#12243b" stroke="#51f6d2" stroke-width="4"/>
  <path d="M116 71H138" stroke="#51f6d2" stroke-width="4" stroke-linecap="round"/>
  <path d="M182 71H204" stroke="#51f6d2" stroke-width="4" stroke-linecap="round"/>
  <path d="M116 149H138" stroke="#51f6d2" stroke-width="4" stroke-linecap="round"/>
  <path d="M182 149H204" stroke="#51f6d2" stroke-width="4" stroke-linecap="round"/>
  <path d="M160 82V58" stroke="#ffd166" stroke-width="4" stroke-linecap="round"/>
  <path d="M160 138V162" stroke="#ffd166" stroke-width="4" stroke-linecap="round"/>
  <circle cx="160" cy="110" r="14" fill="#ffd166"/>
  <path d="M151 110H169M160 101V119" stroke="#07111f" stroke-width="4" stroke-linecap="round"/>
  <path d="M70 185C104 200 216 200 250 185" stroke="#51f6d2" stroke-width="4" stroke-linecap="round" stroke-dasharray="7 9"/>
  <text x="78" y="76" text-anchor="middle" font-family="Inter, Arial, sans-serif" font-size="11" fill="#eaf2ff">Docs</text>
  <text x="241" y="76" text-anchor="middle" font-family="Inter, Arial, sans-serif" font-size="11" fill="#eaf2ff">Qdrant</text>
  <text x="79" y="154" text-anchor="middle" font-family="Inter, Arial, sans-serif" font-size="11" fill="#eaf2ff">Rails</text>
  <text x="241" y="154" text-anchor="middle" font-family="Inter, Arial, sans-serif" font-size="11" fill="#eaf2ff">Evals</text>
  <text x="160" y="210" text-anchor="middle" font-family="Inter, Arial, sans-serif" font-size="14" font-weight="700" fill="#eaf2ff">Advanced RAG</text>
</svg>
