<svg width="320" height="220" viewBox="0 0 320 220" fill="none" xmlns="http://www.w3.org/2000/svg">
  <rect width="320" height="220" rx="28" fill="#0C1325"/>
  <rect x="20" y="20" width="280" height="180" rx="22" fill="url(#bg)"/>
  <circle cx="72" cy="58" r="22" fill="#63F1D4" fill-opacity=".13"/>
  <circle cx="252" cy="58" r="18" fill="#F4C95D" fill-opacity=".14"/>
  <path d="M160 54L224 78V118C224 150 198 172 160 182C122 172 96 150 96 118V78L160 54Z" fill="#0F172A" stroke="#63F1D4" stroke-width="4" stroke-linejoin="round"/>
  <path d="M136 116L153 133L188 96" stroke="#F4C95D" stroke-width="8" stroke-linecap="round" stroke-linejoin="round"/>
  <rect x="48" y="76" width="52" height="18" rx="9" fill="#101C33" stroke="#6FA5FF" stroke-width="2"/>
  <rect x="220" y="76" width="52" height="18" rx="9" fill="#101C33" stroke="#6FA5FF" stroke-width="2"/>
  <rect x="48" y="118" width="52" height="18" rx="9" fill="#101C33" stroke="#6FA5FF" stroke-width="2"/>
  <rect x="220" y="118" width="52" height="18" rx="9" fill="#101C33" stroke="#6FA5FF" stroke-width="2"/>
  <path d="M100 85H120M200 85H220M100 127H120M200 127H220" stroke="#A7B8FF" stroke-width="3" stroke-linecap="round"/>
  <rect x="42" y="172" width="112" height="22" rx="11" fill="#0F172A" fill-opacity=".84"/>
  <rect x="166" y="172" width="112" height="22" rx="11" fill="#0F172A" fill-opacity=".84"/>
  <text x="58" y="187" fill="#63F1D4" font-family="Arial, sans-serif" font-size="12" font-weight="700">GUARDRAILS</text>
  <text x="184" y="187" fill="#F4C95D" font-family="Arial, sans-serif" font-size="12" font-weight="700">LLM SAFETY</text>
  <defs><linearGradient id="bg" x1="28" y1="24" x2="286" y2="196" gradientUnits="userSpaceOnUse"><stop stop-color="#102035"/><stop offset="1" stop-color="#18273B"/></linearGradient></defs>
</svg>
