<svg width="800" height="520" viewBox="0 0 800 520" fill="none" xmlns="http://www.w3.org/2000/svg">
  <rect width="800" height="520" rx="40" fill="#09142B"/>
  <circle cx="170" cy="118" r="84" fill="#0F4052"/>
  <circle cx="624" cy="126" r="74" fill="#182E61"/>
  <circle cx="628" cy="390" r="92" fill="#30224D"/>
  <rect x="102" y="122" width="596" height="278" rx="30" fill="#101D3D" stroke="#285173" stroke-width="2"/>
  <rect x="146" y="162" width="232" height="164" rx="22" fill="#172A52" stroke="#2D4A7B" stroke-width="2"/>
  <rect x="180" y="194" width="164" height="18" rx="9" fill="#D8E3FF" fill-opacity="0.92"/>
  <rect x="180" y="230" width="128" height="14" rx="7" fill="#7D9DCE"/>
  <rect x="180" y="260" width="150" height="14" rx="7" fill="#6B89BC"/>
  <rect x="180" y="290" width="96" height="14" rx="7" fill="#5A77A8"/>
  <rect x="432" y="160" width="222" height="166" rx="24" fill="#16284F" stroke="#2A4778" stroke-width="2"/>
  <circle cx="484" cy="214" r="28" fill="#4F9DFF"/>
  <path d="M484 198V230" stroke="#0E1933" stroke-width="7" stroke-linecap="round"/>
  <path d="M468 214H500" stroke="#0E1933" stroke-width="7" stroke-linecap="round"/>
  <path d="M528 202H606" stroke="#56F1D3" stroke-width="12" stroke-linecap="round"/>
  <path d="M528 238H588" stroke="#F5C15D" stroke-width="12" stroke-linecap="round"/>
  <path d="M528 274H620" stroke="#7D9DCE" stroke-width="12" stroke-linecap="round"/>
  <rect x="170" y="354" width="122" height="30" rx="15" fill="#13375C"/>
  <rect x="312" y="354" width="138" height="30" rx="15" fill="#13233F"/>
  <rect x="468" y="354" width="128" height="30" rx="15" fill="#15314D"/>
  <text x="166" y="88" fill="#F2C85F" font-family="Orbitron, Arial, sans-serif" font-size="22" letter-spacing="4">AI NEWS GENERATION</text>
  <text x="166" y="452" fill="#F3F6FF" font-family="Orbitron, Arial, sans-serif" font-size="44" letter-spacing="2">TRENDS / NEWS / SUMMARIES</text>
</svg>
