<svg width="800" height="520" viewBox="0 0 800 520" fill="none" xmlns="http://www.w3.org/2000/svg">
  <rect width="800" height="520" rx="40" fill="#09142B"/>
  <circle cx="170" cy="120" r="84" fill="#0E4256"/>
  <circle cx="628" cy="124" r="72" fill="#193061"/>
  <circle cx="632" cy="394" r="92" fill="#302550"/>
  <rect x="100" y="120" width="600" height="286" rx="32" fill="#101D3D" stroke="#295174" stroke-width="2"/>
  <rect x="144" y="162" width="236" height="176" rx="24" fill="#14274C" stroke="#304E7F" stroke-width="2"/>
  <rect x="176" y="194" width="172" height="20" rx="10" fill="#E5EEFF"/>
  <rect x="176" y="230" width="154" height="16" rx="8" fill="#81A6DB"/>
  <rect x="176" y="262" width="132" height="16" rx="8" fill="#6A8FC5"/>
  <rect x="176" y="294" width="110" height="16" rx="8" fill="#5A79A8"/>
  <rect x="176" y="348" width="88" height="28" rx="14" fill="#15395E"/>
  <rect x="420" y="162" width="236" height="176" rx="24" fill="#14274C" stroke="#304E7F" stroke-width="2"/>
  <path d="M456 208H620" stroke="#56F1D3" stroke-width="12" stroke-linecap="round"/>
  <path d="M456 246H590" stroke="#4F9DFF" stroke-width="12" stroke-linecap="round"/>
  <path d="M456 284H608" stroke="#F5C15D" stroke-width="12" stroke-linecap="round"/>
  <circle cx="592" cy="198" r="28" fill="#4F9DFF"/>
  <path d="M578 198H606" stroke="#09142B" stroke-width="7" stroke-linecap="round"/>
  <path d="M592 184V212" stroke="#09142B" stroke-width="7" stroke-linecap="round"/>
  <circle cx="544" cy="360" r="36" fill="#182B54"/>
  <path d="M528 360H560" stroke="#56F1D3" stroke-width="8" stroke-linecap="round"/>
  <path d="M544 344V376" stroke="#56F1D3" stroke-width="8" stroke-linecap="round"/>
  <text x="160" y="88" fill="#F2C85F" font-family="Orbitron, Arial, sans-serif" font-size="21" letter-spacing="4">AI NEWS GENERATION</text>
  <text x="156" y="454" fill="#F3F6FF" font-family="Orbitron, Arial, sans-serif" font-size="42" letter-spacing="2">HEADLINES / TRENDS / BRIEFS</text>
</svg>
