<svg width="320" height="220" viewBox="0 0 320 220" fill="none" xmlns="http://www.w3.org/2000/svg">
  <rect width="320" height="220" rx="28" fill="#0C1325"/>
  <rect x="20" y="20" width="280" height="180" rx="22" fill="url(#bg)"/>
  <circle cx="70" cy="58" r="22" fill="#F8C86A" fill-opacity=".12"/>
  <circle cx="252" cy="54" r="18" fill="#63F1D4" fill-opacity=".12"/>
  <circle cx="108" cy="108" r="44" fill="#0F172A" stroke="#F8C86A" stroke-width="4"/>
<path d="M108 70C122 78 130 92 130 108C130 124 120 138 108 146C96 138 86 124 86 108C86 92 94 78 108 70Z" fill="#F8C86A" fill-opacity=".22" stroke="#F8C86A" stroke-width="4"/>
<rect x="170" y="76" width="18" height="74" rx="9" fill="#63F1D4"/>
<rect x="208" y="76" width="18" height="74" rx="9" fill="#63F1D4"/>
<path d="M179 76V58M217 76V58" stroke="#E8F3FF" stroke-width="4" stroke-linecap="round"/>
  <rect x="42" y="174" width="110" height="22" rx="11" fill="#0F172A" fill-opacity=".82"/>
  <rect x="160" y="174" width="118" height="22" rx="11" fill="#0F172A" fill-opacity=".82"/>
  <text x="56" y="189" fill="#F8C86A" font-family="Arial, sans-serif" font-size="12" font-weight="700">Calories</text>
  <text x="174" y="189" fill="#63F1D4" font-family="Arial, sans-serif" font-size="12" font-weight="700">Food Vision</text>
  <defs>
    <linearGradient id="bg" x1="28" y1="24" x2="286" y2="196" gradientUnits="userSpaceOnUse">
      <stop stop-color="#111E38"/>
      <stop offset="1" stop-color="#142746"/>
    </linearGradient>
  </defs>
</svg>