<svg width="320" height="220" viewBox="0 0 320 220" fill="none" xmlns="http://www.w3.org/2000/svg">
  <rect width="320" height="220" rx="28" fill="#0C1325"/>
  <rect x="20" y="20" width="280" height="180" rx="22" fill="url(#bg)"/>
  <circle cx="70" cy="58" r="22" fill="#22C55E" fill-opacity=".12"/>
  <circle cx="252" cy="54" r="18" fill="#F8C86A" fill-opacity=".12"/>
  <path d="M160 156V82" stroke="#E8F3FF" stroke-width="6" stroke-linecap="round"/>
<path d="M160 88C146 78 134 78 124 90C136 100 148 102 160 88Z" fill="#22C55E"/>
<path d="M160 108C146 98 134 98 124 110C136 120 148 122 160 108Z" fill="#22C55E" fill-opacity=".86"/>
<path d="M160 128C146 118 134 118 124 130C136 140 148 142 160 128Z" fill="#22C55E" fill-opacity=".72"/>
<path d="M160 88C174 78 186 78 196 90C184 100 172 102 160 88Z" fill="#F8C86A"/>
<path d="M160 108C174 98 186 98 196 110C184 120 172 122 160 108Z" fill="#F8C86A" fill-opacity=".86"/>
<path d="M160 128C174 118 186 118 196 130C184 140 172 142 160 128Z" fill="#F8C86A" fill-opacity=".72"/>
<path d="M94 164H226" stroke="#F8FAFC" stroke-opacity=".4" stroke-width="4" stroke-linecap="round"/>
  <rect x="42" y="174" width="110" height="22" rx="11" fill="#0F172A" fill-opacity=".82"/>
  <rect x="160" y="174" width="118" height="22" rx="11" fill="#0F172A" fill-opacity=".82"/>
  <text x="56" y="189" fill="#22C55E" font-family="Arial, sans-serif" font-size="12" font-weight="700">Crops</text>
  <text x="174" y="189" fill="#F8C86A" font-family="Arial, sans-serif" font-size="12" font-weight="700">Agri ML</text>
  <defs>
    <linearGradient id="bg" x1="28" y1="24" x2="286" y2="196" gradientUnits="userSpaceOnUse">
      <stop stop-color="#111E38"/>
      <stop offset="1" stop-color="#142746"/>
    </linearGradient>
  </defs>
</svg>