<svg width="320" height="220" viewBox="0 0 320 220" fill="none" xmlns="http://www.w3.org/2000/svg">
  <rect width="320" height="220" rx="28" fill="#0C1325"/>
  <rect x="20" y="20" width="280" height="180" rx="22" fill="url(#bg)"/>
  <circle cx="70" cy="58" r="22" fill="#63F1D4" fill-opacity=".12"/>
  <circle cx="252" cy="54" r="18" fill="#6FA5FF" fill-opacity=".12"/>
  <circle cx="160" cy="102" r="42" fill="#0F172A" stroke="#6FA5FF" stroke-width="4"/>
<circle cx="146" cy="96" r="5" fill="#63F1D4"/>
<circle cx="174" cy="96" r="5" fill="#63F1D4"/>
<path d="M146 122C150 128 155 130 160 130C165 130 170 128 174 122" stroke="#63F1D4" stroke-width="5" stroke-linecap="round"/>
<path d="M132 78C142 62 178 62 188 78" stroke="#6FA5FF" stroke-width="5" stroke-linecap="round"/>

  <rect x="42" y="174" width="110" height="22" rx="11" fill="#0F172A" fill-opacity=".82"/>
  <rect x="160" y="174" width="118" height="22" rx="11" fill="#0F172A" fill-opacity=".82"/>
  <text x="56" y="189" fill="#63F1D4" font-family="Arial, sans-serif" font-size="12" font-weight="700">Face ID</text>
  <text x="174" y="189" fill="#6FA5FF" font-family="Arial, sans-serif" font-size="12" font-weight="700">Recognition</text>
  <defs>
    <linearGradient id="bg" x1="28" y1="24" x2="286" y2="196" gradientUnits="userSpaceOnUse">
      <stop stop-color="#111E38"/>
      <stop offset="1" stop-color="#142746"/>
    </linearGradient>
  </defs>
</svg>