<svg width="320" height="220" viewBox="0 0 320 220" fill="none" xmlns="http://www.w3.org/2000/svg">
  <rect width="320" height="220" rx="28" fill="#0C1325"/>
  <rect x="20" y="20" width="280" height="180" rx="22" fill="url(#bg)"/>
  <circle cx="70" cy="58" r="22" fill="#6FA5FF" fill-opacity=".12"/>
  <circle cx="252" cy="54" r="18" fill="#63F1D4" fill-opacity=".12"/>
  <rect x="78" y="74" width="164" height="86" rx="18" fill="#0F172A" stroke="#63F1D4" stroke-width="4"/>
<path d="M102 118H218" stroke="#E8F3FF" stroke-width="4" stroke-linecap="round"/>
<circle cx="160" cy="118" r="20" fill="#6FA5FF" fill-opacity=".18" stroke="#6FA5FF" stroke-width="4"/>
<path d="M160 104V132M150 110C153 106 157 104 162 104C170 104 174 108 174 114C174 126 148 122 148 134C148 140 154 144 162 144C167 144 171 142 174 138" stroke="#6FA5FF" stroke-width="4" stroke-linecap="round" stroke-linejoin="round"/>

  <rect x="42" y="174" width="110" height="22" rx="11" fill="#0F172A" fill-opacity=".82"/>
  <rect x="160" y="174" width="118" height="22" rx="11" fill="#0F172A" fill-opacity=".82"/>
  <text x="56" y="189" fill="#6FA5FF" font-family="Arial, sans-serif" font-size="12" font-weight="700">Loans</text>
  <text x="174" y="189" fill="#63F1D4" font-family="Arial, sans-serif" font-size="12" font-weight="700">Risk ML</text>
  <defs>
    <linearGradient id="bg" x1="28" y1="24" x2="286" y2="196" gradientUnits="userSpaceOnUse">
      <stop stop-color="#111E38"/>
      <stop offset="1" stop-color="#142746"/>
    </linearGradient>
  </defs>
</svg>