<svg width="320" height="220" viewBox="0 0 320 220" fill="none" xmlns="http://www.w3.org/2000/svg">
  <rect width="320" height="220" rx="28" fill="#0C1325"/>
  <rect x="20" y="20" width="280" height="180" rx="22" fill="url(#bg)"/>
  <circle cx="74" cy="60" r="22" fill="#63F1D4" fill-opacity=".12"/>
  <circle cx="252" cy="56" r="18" fill="#6FA5FF" fill-opacity=".14"/>
  <rect x="42" y="58" width="78" height="92" rx="16" fill="#0F172A" stroke="#4CC9F0" stroke-width="3.5"/>
  <path d="M60 80H102M60 96H94M60 112H102M60 128H88" stroke="#E8F3FF" stroke-width="5" stroke-linecap="round"/>
  <rect x="138" y="56" width="138" height="96" rx="18" fill="#101C33" stroke="#7C8BFF" stroke-width="3.5"/>
  <rect x="156" y="76" width="26" height="20" rx="10" fill="#63F1D4"/>
  <rect x="194" y="76" width="26" height="20" rx="10" fill="#6FA5FF"/>
  <rect x="232" y="76" width="26" height="20" rx="10" fill="#F4C95D"/>
  <rect x="156" y="110" width="26" height="20" rx="10" fill="#6FA5FF"/>
  <rect x="194" y="110" width="26" height="20" rx="10" fill="#F4C95D"/>
  <rect x="232" y="110" width="26" height="20" rx="10" fill="#63F1D4"/>
  <path d="M182 86H194M220 86H232M182 120H194M220 120H232M169 96V110M207 96V110M245 96V110" stroke="#A7B8FF" stroke-width="2.5" stroke-linecap="round"/>
  <rect x="42" y="172" width="122" height="22" rx="11" fill="#0F172A" fill-opacity=".84"/>
  <rect x="174" y="172" width="104" height="22" rx="11" fill="#0F172A" fill-opacity=".84"/>
  <text x="56" y="187" fill="#63F1D4" font-family="Arial, sans-serif" font-size="12" font-weight="700">PSKGPT</text>
  <text x="188" y="187" fill="#6FA5FF" font-family="Arial, sans-serif" font-size="12" font-weight="700">TRANSFORMERS</text>
  <defs>
    <linearGradient id="bg" x1="28" y1="24" x2="286" y2="196" gradientUnits="userSpaceOnUse">
      <stop stop-color="#111E38"/>
      <stop offset="1" stop-color="#16284A"/>
    </linearGradient>
  </defs>
</svg>
