<svg width="320" height="220" viewBox="0 0 320 220" fill="none" xmlns="http://www.w3.org/2000/svg">
  <rect width="320" height="220" rx="28" fill="#0C1325"/>
  <rect x="20" y="20" width="280" height="180" rx="22" fill="url(#bg)"/>
  <circle cx="70" cy="58" r="22" fill="#6FA5FF" fill-opacity=".12"/>
  <circle cx="252" cy="54" r="18" fill="#A78BFA" fill-opacity=".12"/>
  <rect x="92" y="72" width="40" height="40" rx="6" fill="#0F172A" stroke="#6FA5FF" stroke-width="4"/>
<rect x="188" y="72" width="40" height="40" rx="6" fill="#0F172A" stroke="#6FA5FF" stroke-width="4"/>
<rect x="92" y="128" width="40" height="40" rx="6" fill="#0F172A" stroke="#6FA5FF" stroke-width="4"/>
<rect x="146" y="94" width="18" height="18" fill="#A78BFA"/><rect x="168" y="116" width="18" height="18" fill="#A78BFA"/><rect x="188" y="138" width="18" height="18" fill="#A78BFA"/>

  <rect x="42" y="174" width="110" height="22" rx="11" fill="#0F172A" fill-opacity=".82"/>
  <rect x="160" y="174" width="118" height="22" rx="11" fill="#0F172A" fill-opacity=".82"/>
  <text x="56" y="189" fill="#6FA5FF" font-family="Arial, sans-serif" font-size="12" font-weight="700">QR</text>
  <text x="174" y="189" fill="#A78BFA" font-family="Arial, sans-serif" font-size="12" font-weight="700">Generator</text>
  <defs>
    <linearGradient id="bg" x1="28" y1="24" x2="286" y2="196" gradientUnits="userSpaceOnUse">
      <stop stop-color="#111E38"/>
      <stop offset="1" stop-color="#142746"/>
    </linearGradient>
  </defs>
</svg>