<svg width="320" height="220" viewBox="0 0 320 220" fill="none" xmlns="http://www.w3.org/2000/svg">
  <rect width="320" height="220" rx="28" fill="#0C1325"/>
  <rect x="20" y="20" width="280" height="180" rx="22" fill="url(#bg)"/>
  <circle cx="72" cy="58" r="22" fill="#6FA5FF" fill-opacity=".13"/>
  <circle cx="252" cy="58" r="18" fill="#63F1D4" fill-opacity=".14"/>
  <rect x="46" y="66" width="78" height="86" rx="16" fill="#0F172A" stroke="#6FA5FF" stroke-width="3.5"/>
  <path d="M64 90H106M64 108H98M64 126H104" stroke="#E8F3FF" stroke-width="5" stroke-linecap="round"/>
  <rect x="144" y="58" width="130" height="102" rx="18" fill="#101C33" stroke="#63F1D4" stroke-width="3.5"/>
  <path d="M164 132L184 110L204 120L230 88L252 104" stroke="#F4C95D" stroke-width="6" stroke-linecap="round" stroke-linejoin="round"/>
  <circle cx="184" cy="110" r="6" fill="#F4C95D"/>
  <circle cx="230" cy="88" r="6" fill="#F4C95D"/>
  <path d="M124 108H144" stroke="#A7B8FF" stroke-width="3" stroke-linecap="round"/>
  <rect x="42" y="172" width="106" height="22" rx="11" fill="#0F172A" fill-opacity=".84"/>
  <rect x="160" y="172" width="118" height="22" rx="11" fill="#0F172A" fill-opacity=".84"/>
  <text x="58" y="187" fill="#6FA5FF" font-family="Arial, sans-serif" font-size="12" font-weight="700">RAGAS</text>
  <text x="176" y="187" fill="#63F1D4" font-family="Arial, sans-serif" font-size="12" font-weight="700">EVALUATION</text>
  <defs><linearGradient id="bg" x1="28" y1="24" x2="286" y2="196" gradientUnits="userSpaceOnUse"><stop stop-color="#111E38"/><stop offset="1" stop-color="#193044"/></linearGradient></defs>
</svg>
