<svg width="640" height="420" viewBox="0 0 640 420" fill="none" xmlns="http://www.w3.org/2000/svg">
  <rect width="640" height="420" rx="34" fill="#0C1630"/>
  <rect x="34" y="34" width="572" height="352" rx="28" fill="#111D3A"/>
  <circle cx="170" cy="110" r="56" fill="#15354B"/>
  <circle cx="496" cy="308" r="64" fill="#223A68"/>
  <rect x="110" y="146" width="126" height="118" rx="26" fill="#162547" stroke="#2C4D86"/>
  <path d="M144 242C144 217 160 187 188 175C198 171 211 176 215 187C221 204 217 229 194 244" stroke="#58F6D6" stroke-width="12" stroke-linecap="round"/>
  <rect x="257" y="146" width="126" height="118" rx="26" fill="#162547" stroke="#2C4D86"/>
  <path d="M301 178V232M340 178V232M282 252H358" stroke="#6AB0FF" stroke-width="12" stroke-linecap="round"/>
  <rect x="404" y="146" width="126" height="118" rx="26" fill="#162547" stroke="#2C4D86"/>
  <path d="M446 182L488 224M446 224L488 182" stroke="#FFBF57" stroke-width="12" stroke-linecap="round"/>
  <text x="320" y="334" fill="#F2F7FF" font-size="30" font-family="Orbitron, Arial" text-anchor="middle">ROCK / PAPER / SCISSORS</text>
</svg>
