<svg width="320" height="220" viewBox="0 0 320 220" fill="none" xmlns="http://www.w3.org/2000/svg">
  <rect width="320" height="220" rx="28" fill="#0C1325"/>
  <rect x="20" y="20" width="280" height="180" rx="22" fill="url(#bg)"/>
  <circle cx="76" cy="58" r="20" fill="#63F1D4" fill-opacity=".14"/>
  <circle cx="246" cy="58" r="18" fill="#A78BFA" fill-opacity=".14"/>
  <path d="M82 70C82 60 90 52 100 52H152C166 52 176 62 176 76V158H112C95.5 158 82 144.5 82 128V70Z" fill="#0F172A" stroke="#63F1D4" stroke-width="4"/>
  <path d="M176 76C176 62 186 52 200 52H220C230 52 238 60 238 70V128C238 144.5 224.5 158 208 158H176V76Z" fill="#0F172A" stroke="#A78BFA" stroke-width="4"/>
  <path d="M106 88H150M106 108H150M106 128H140M194 88H218M194 108H214" stroke="#E8F3FF" stroke-width="5" stroke-linecap="round"/>
  <rect x="196" y="118" width="32" height="22" rx="8" fill="#A78BFA" fill-opacity=".18" stroke="#A78BFA" stroke-width="3"/>
  <path d="M204 129L210 135L220 123" stroke="#A78BFA" stroke-width="4" stroke-linecap="round" stroke-linejoin="round"/>
  <rect x="44" y="174" width="120" height="22" rx="11" fill="#0F172A" fill-opacity=".82"/>
  <rect x="170" y="174" width="108" height="22" rx="11" fill="#0F172A" fill-opacity=".82"/>
  <text x="58" y="189" fill="#63F1D4" font-family="Arial, sans-serif" font-size="12" font-weight="700">LEARNING</text>
  <text x="184" y="189" fill="#A78BFA" font-family="Arial, sans-serif" font-size="12" font-weight="700">PRACTICE</text>
  <defs>
    <linearGradient id="bg" x1="28" y1="24" x2="286" y2="196" gradientUnits="userSpaceOnUse">
      <stop stop-color="#111E38"/>
      <stop offset="1" stop-color="#142746"/>
    </linearGradient>
  </defs>
</svg>