<svg width="320" height="220" viewBox="0 0 320 220" fill="none" xmlns="http://www.w3.org/2000/svg">
  <rect width="320" height="220" rx="28" fill="#0C1325"/>
  <rect x="20" y="20" width="280" height="180" rx="22" fill="url(#bg)"/>
  <circle cx="70" cy="58" r="22" fill="#F8C86A" fill-opacity=".12"/>
  <circle cx="252" cy="54" r="18" fill="#6FA5FF" fill-opacity=".12"/>
  <rect x="104" y="70" width="112" height="80" rx="16" fill="#0F172A" stroke="#F8C86A" stroke-width="4"/>
<path d="M126 94H194M126 116H194M126 138H172" stroke="#E8F3FF" stroke-width="5" stroke-linecap="round"/>
<path d="M104 92H84M104 112H84M104 132H84M216 92H236M216 112H236M216 132H236" stroke="#6FA5FF" stroke-width="4" stroke-linecap="round"/>

  <rect x="42" y="174" width="110" height="22" rx="11" fill="#0F172A" fill-opacity=".82"/>
  <rect x="160" y="174" width="118" height="22" rx="11" fill="#0F172A" fill-opacity=".82"/>
  <text x="56" y="189" fill="#F8C86A" font-family="Arial, sans-serif" font-size="12" font-weight="700">Sensors</text>
  <text x="174" y="189" fill="#6FA5FF" font-family="Arial, sans-serif" font-size="12" font-weight="700">Fault ML</text>
  <defs>
    <linearGradient id="bg" x1="28" y1="24" x2="286" y2="196" gradientUnits="userSpaceOnUse">
      <stop stop-color="#111E38"/>
      <stop offset="1" stop-color="#142746"/>
    </linearGradient>
  </defs>
</svg>