<svg width="320" height="220" viewBox="0 0 320 220" fill="none" xmlns="http://www.w3.org/2000/svg">
  <rect width="320" height="220" rx="28" fill="#0C1325"/>
  <rect x="20" y="20" width="280" height="180" rx="22" fill="url(#bg)"/>
  <circle cx="70" cy="58" r="22" fill="#6FA5FF" fill-opacity=".12"/>
  <circle cx="252" cy="54" r="18" fill="#63F1D4" fill-opacity=".12"/>
  <path d="M128 150V102C128 96 132 92 138 92C144 92 148 96 148 102V128" stroke="#6FA5FF" stroke-width="8" stroke-linecap="round"/>
<path d="M148 128V88C148 82 152 78 158 78C164 78 168 82 168 88V126" stroke="#6FA5FF" stroke-width="8" stroke-linecap="round"/>
<path d="M168 126V94C168 88 172 84 178 84C184 84 188 88 188 94V130" stroke="#6FA5FF" stroke-width="8" stroke-linecap="round"/>
<path d="M188 130V104C188 98 192 94 198 94C204 94 208 98 208 104V138C208 152 196 164 182 164H154C140 164 128 152 128 138V126" stroke="#63F1D4" stroke-width="8" stroke-linecap="round" stroke-linejoin="round"/>

  <rect x="42" y="174" width="110" height="22" rx="11" fill="#0F172A" fill-opacity=".82"/>
  <rect x="160" y="174" width="118" height="22" rx="11" fill="#0F172A" fill-opacity=".82"/>
  <text x="56" y="189" fill="#6FA5FF" font-family="Arial, sans-serif" font-size="12" font-weight="700">Signs</text>
  <text x="174" y="189" fill="#63F1D4" font-family="Arial, sans-serif" font-size="12" font-weight="700">Gesture CV</text>
  <defs>
    <linearGradient id="bg" x1="28" y1="24" x2="286" y2="196" gradientUnits="userSpaceOnUse">
      <stop stop-color="#111E38"/>
      <stop offset="1" stop-color="#142746"/>
    </linearGradient>
  </defs>
</svg>