<svg width="320" height="220" viewBox="0 0 320 220" fill="none" xmlns="http://www.w3.org/2000/svg">
  <rect width="320" height="220" rx="28" fill="#0C1325"/>
  <rect x="20" y="20" width="280" height="180" rx="22" fill="url(#bg)"/>
  <circle cx="70" cy="58" r="22" fill="#EF4444" fill-opacity=".12"/>
  <circle cx="252" cy="54" r="18" fill="#F8C86A" fill-opacity=".12"/>
  <path d="M160 66L220 90V122C220 148 196 168 160 180C124 168 100 148 100 122V90L160 66Z" fill="#0F172A" stroke="#EF4444" stroke-width="4"/>
<path d="M136 122L152 138L186 102" stroke="#F8C86A" stroke-width="7" stroke-linecap="round" stroke-linejoin="round"/>

  <rect x="42" y="174" width="110" height="22" rx="11" fill="#0F172A" fill-opacity=".82"/>
  <rect x="160" y="174" width="118" height="22" rx="11" fill="#0F172A" fill-opacity=".82"/>
  <text x="56" y="189" fill="#EF4444" font-family="Arial, sans-serif" font-size="12" font-weight="700">Spam</text>
  <text x="174" y="189" fill="#F8C86A" font-family="Arial, sans-serif" font-size="12" font-weight="700">Message NLP</text>
  <defs>
    <linearGradient id="bg" x1="28" y1="24" x2="286" y2="196" gradientUnits="userSpaceOnUse">
      <stop stop-color="#111E38"/>
      <stop offset="1" stop-color="#142746"/>
    </linearGradient>
  </defs>
</svg>