<svg width="320" height="220" viewBox="0 0 320 220" fill="none" xmlns="http://www.w3.org/2000/svg">
  <rect width="320" height="220" rx="28" fill="#0C1325"/>
  <rect x="20" y="20" width="280" height="180" rx="22" fill="url(#bg)"/>
  <circle cx="70" cy="58" r="22" fill="#63F1D4" fill-opacity=".12"/>
  <circle cx="252" cy="54" r="18" fill="#6FA5FF" fill-opacity=".12"/>
  <path d="M74 64C74 56 80 50 88 50H150C164 50 174 60 174 74V158H100C86 158 74 146 74 132V64Z" fill="#0F172A" stroke="#63F1D4" stroke-width="4"/>
<path d="M174 74C174 60 184 50 198 50H232C240 50 246 56 246 64V132C246 146 234 158 220 158H174V74Z" fill="#0F172A" stroke="#6FA5FF" stroke-width="4"/>
<path d="M100 86H146M100 108H146M196 86H222M196 108H222" stroke="#E8F3FF" stroke-width="5" stroke-linecap="round"/>

  <rect x="42" y="174" width="110" height="22" rx="11" fill="#0F172A" fill-opacity=".82"/>
  <rect x="160" y="174" width="118" height="22" rx="11" fill="#0F172A" fill-opacity=".82"/>
  <text x="56" y="189" fill="#63F1D4" font-family="Arial, sans-serif" font-size="12" font-weight="700">Students</text>
  <text x="174" y="189" fill="#6FA5FF" font-family="Arial, sans-serif" font-size="12" font-weight="700">Edu ML</text>
  <defs>
    <linearGradient id="bg" x1="28" y1="24" x2="286" y2="196" gradientUnits="userSpaceOnUse">
      <stop stop-color="#111E38"/>
      <stop offset="1" stop-color="#142746"/>
    </linearGradient>
  </defs>
</svg>