<svg width="320" height="220" viewBox="0 0 320 220" fill="none" xmlns="http://www.w3.org/2000/svg">
  <rect width="320" height="220" rx="28" fill="#0C1325"/>
  <rect x="20" y="20" width="280" height="180" rx="22" fill="url(#bg)"/>
  <circle cx="70" cy="58" r="22" fill="#F8C86A" fill-opacity=".12"/>
  <circle cx="252" cy="54" r="18" fill="#63F1D4" fill-opacity=".12"/>
  <path d="M88 120H118L156 88V152L118 120H88Z" fill="#0F172A" stroke="#F8C86A" stroke-width="4" stroke-linejoin="round"/>
<path d="M188 96C198 104 204 116 204 120C204 124 198 136 188 144" stroke="#63F1D4" stroke-width="6" stroke-linecap="round"/>
<path d="M208 82C224 94 234 110 234 120C234 130 224 146 208 158" stroke="#63F1D4" stroke-width="6" stroke-linecap="round"/>

  <rect x="42" y="174" width="110" height="22" rx="11" fill="#0F172A" fill-opacity=".82"/>
  <rect x="160" y="174" width="118" height="22" rx="11" fill="#0F172A" fill-opacity=".82"/>
  <text x="56" y="189" fill="#F8C86A" font-family="Arial, sans-serif" font-size="12" font-weight="700">Voice AI</text>
  <text x="174" y="189" fill="#63F1D4" font-family="Arial, sans-serif" font-size="12" font-weight="700">Assistant</text>
  <defs>
    <linearGradient id="bg" x1="28" y1="24" x2="286" y2="196" gradientUnits="userSpaceOnUse">
      <stop stop-color="#111E38"/>
      <stop offset="1" stop-color="#142746"/>
    </linearGradient>
  </defs>
</svg>