<svg width="320" height="220" viewBox="0 0 320 220" fill="none" xmlns="http://www.w3.org/2000/svg">
  <rect width="320" height="220" rx="28" fill="#0C1325"/>
  <rect x="20" y="20" width="280" height="180" rx="22" fill="url(#bg)"/>
  <circle cx="70" cy="58" r="22" fill="#22C55E" fill-opacity=".12"/>
  <circle cx="252" cy="54" r="18" fill="#63F1D4" fill-opacity=".12"/>
  <rect x="64" y="62" width="118" height="76" rx="18" fill="#0F172A" stroke="#22C55E" stroke-width="4"/>
<path d="M92 88H152M92 108H138" stroke="#E8F3FF" stroke-width="6" stroke-linecap="round"/>
<path d="M194 92C194 78 205 66 219 66H236C250 66 262 78 262 92V120C262 134 250 146 236 146H228L204 160L210 142C200 138 194 129 194 120V92Z" fill="#63F1D4" fill-opacity=".18" stroke="#63F1D4" stroke-width="4"/>

  <rect x="42" y="174" width="110" height="22" rx="11" fill="#0F172A" fill-opacity=".82"/>
  <rect x="160" y="174" width="118" height="22" rx="11" fill="#0F172A" fill-opacity=".82"/>
  <text x="56" y="189" fill="#22C55E" font-family="Arial, sans-serif" font-size="12" font-weight="700">Chat Data</text>
  <text x="174" y="189" fill="#63F1D4" font-family="Arial, sans-serif" font-size="12" font-weight="700">Analytics</text>
  <defs>
    <linearGradient id="bg" x1="28" y1="24" x2="286" y2="196" gradientUnits="userSpaceOnUse">
      <stop stop-color="#111E38"/>
      <stop offset="1" stop-color="#142746"/>
    </linearGradient>
  </defs>
</svg>