<svg width="320" height="220" viewBox="0 0 320 220" fill="none" xmlns="http://www.w3.org/2000/svg">
  <rect width="320" height="220" rx="28" fill="#0C1325"/>
  <rect x="20" y="20" width="280" height="180" rx="22" fill="url(#bg)"/>
  <circle cx="70" cy="58" r="22" fill="#EF4444" fill-opacity=".12"/>
  <circle cx="252" cy="54" r="18" fill="#F8C86A" fill-opacity=".12"/>
  <path d="M126 64H194C194 92 180 112 168 120V154H192V164H128V154H152V120C140 112 126 92 126 64Z" fill="#0F172A" stroke="#EF4444" stroke-width="4"/>
<path d="M136 74H184C182 90 174 102 160 110C146 102 138 90 136 74Z" fill="#EF4444" fill-opacity=".22"/>
<circle cx="228" cy="84" r="18" fill="#F8C86A" fill-opacity=".18" stroke="#F8C86A" stroke-width="4"/>

  <rect x="42" y="174" width="110" height="22" rx="11" fill="#0F172A" fill-opacity=".82"/>
  <rect x="160" y="174" width="118" height="22" rx="11" fill="#0F172A" fill-opacity=".82"/>
  <text x="56" y="189" fill="#EF4444" font-family="Arial, sans-serif" font-size="12" font-weight="700">Wine</text>
  <text x="174" y="189" fill="#F8C86A" font-family="Arial, sans-serif" font-size="12" font-weight="700">Quality ML</text>
  <defs>
    <linearGradient id="bg" x1="28" y1="24" x2="286" y2="196" gradientUnits="userSpaceOnUse">
      <stop stop-color="#111E38"/>
      <stop offset="1" stop-color="#142746"/>
    </linearGradient>
  </defs>
</svg>